  <svg version="1.1" id="Layer_1" xmlns="http://www.w3.org/2000/svg" xmlns:xlink="http://www.w3.org/1999/xlink" x="0px" y="0px"
                 width="300px" height="300px" viewBox="0 0 595.28 841.89" enable-background="new 0 0 595.28 841.89" xml:space="preserve">
<g>
    <path class="path1" fill="#010101" stroke="#000000" stroke-width="3" stroke-miterlimit="10" d="M465.614,271.02c0,0-0.519,0.327-1.39,0.788
		c-0.89,0.475-2.155,1.064-3.733,1.658c-0.794,0.314-1.646,0.546-2.578,0.471c-0.465-0.024-0.951-0.082-1.46-0.091
		c-0.508-0.012-1.042,0.022-1.594,0.031c-0.552,0.015-1.124,0.03-1.717,0.046c-0.593,0.04-1.206,0.081-1.84,0.123
		c-1.266,0.06-2.608,0.216-4.024,0.374c-5.656,0.658-12.502,1.984-19.972,4.661c-1.854,0.706-3.796,1.338-5.71,2.226
		c-0.965,0.417-1.944,0.841-2.936,1.27c-0.986,0.441-1.953,0.967-2.949,1.455c-0.99,0.502-2.012,0.969-3.014,1.506
		c-0.991,0.561-1.993,1.13-3.008,1.705c-2.058,1.091-4.031,2.448-6.082,3.76c-8.11,5.399-16.302,12.182-24.038,20.363
		c-7.736,8.173-15.172,17.574-22.054,27.954c-6.873,10.386-13.106,21.795-18.432,33.883c-1.252,3.059-2.508,6.13-3.769,9.21
		c-0.609,1.549-1.301,3.067-1.846,4.648c-0.567,1.573-1.134,3.147-1.702,4.723c-1.111,3.162-2.339,6.287-3.328,9.504
		c-1.004,3.212-2.009,6.428-3.013,9.643l-0.754,2.411l-0.43,1.352l-0.457,1.309c-0.604,1.674-1.228,3.313-1.883,4.935
		c-1.289,3.254-2.692,6.436-4.152,9.584c-2.936,6.286-6.168,12.39-9.638,18.295c-3.477,5.902-7.256,11.563-11.203,17.004
		c-1.01,1.344-2.016,2.684-3.02,4.02c-0.995,1.342-2.085,2.606-3.118,3.905c-2.044,2.618-4.284,5.047-6.443,7.504
		c-8.784,9.712-18.471,18.037-28.386,24.853c-9.932,6.808-20.151,11.99-29.925,15.779c-1.231,0.451-2.45,0.897-3.655,1.339
		c-1.211,0.422-2.378,0.926-3.598,1.233c-2.409,0.689-4.763,1.361-7.058,2.017c-1.14,0.348-2.303,0.551-3.439,0.792
		c-1.136,0.234-2.257,0.465-3.362,0.693c-2.208,0.453-4.341,0.936-6.451,1.166c-4.209,0.517-8.119,1.092-11.778,1.191
		c-3.65,0.173-6.985,0.367-10.008,0.211c-3.02-0.104-5.705-0.167-8.033-0.317c-2.323-0.263-4.298-0.486-5.9-0.667
		c-3.193-0.391-4.881-0.631-4.881-0.631s1.717-0.162,4.909-0.406c1.591-0.108,3.552-0.241,5.858-0.397
		c2.298-0.207,4.93-0.591,7.866-0.914c0.734-0.08,1.487-0.161,2.259-0.245c0.386-0.044,0.776-0.088,1.171-0.133
		c0.393-0.069,0.79-0.139,1.192-0.21c1.604-0.28,3.283-0.573,5.032-0.878c3.514-0.458,7.229-1.425,11.199-2.326
		c7.905-1.934,16.703-4.574,25.819-8.57c9.146-3.899,18.629-9.099,27.87-15.742c1.154-0.832,2.33-1.648,3.488-2.506
		c1.127-0.9,2.261-1.806,3.402-2.717c1.126-0.93,2.324-1.783,3.41-2.79c1.107-0.98,2.221-1.965,3.341-2.956l1.685-1.488l1.629-1.569
		c1.089-1.048,2.184-2.102,3.284-3.161c1.102-1.056,2.123-2.208,3.196-3.315c1.048-1.132,2.161-2.21,3.169-3.399
		c2.037-2.356,4.151-4.677,6.108-7.168c0.985-1.239,2.027-2.439,2.977-3.72c0.959-1.274,1.921-2.553,2.886-3.835
		c3.768-5.199,7.407-10.599,10.758-16.242c3.343-5.646,6.464-11.489,9.292-17.489c1.406-3.002,2.757-6.039,3.985-9.108
		c0.63-1.529,1.204-3.077,1.754-4.607l0.383-1.103l0.343-1.082l0.763-2.467c1.018-3.289,2.036-6.578,3.053-9.864
		c0.482-1.651,1.078-3.267,1.648-4.89l1.696-4.87c0.565-1.622,1.129-3.242,1.693-4.861c0.542-1.626,1.235-3.199,1.844-4.798
		c1.263-3.183,2.521-6.356,3.775-9.517c1.371-3.119,2.737-6.225,4.096-9.316l1.017-2.317l1.099-2.276
		c0.734-1.515,1.466-3.027,2.196-4.533c0.728-1.509,1.454-3.014,2.177-4.513c0.789-1.47,1.575-2.935,2.358-4.395
		c1.583-2.913,3.066-5.857,4.821-8.628c6.601-11.305,14.193-21.663,22.652-30.413c8.432-8.762,17.564-16.034,26.784-21.458
		c2.322-1.33,4.555-2.691,6.877-3.786c1.144-0.573,2.275-1.139,3.392-1.699c1.131-0.532,2.277-0.999,3.395-1.486
		c1.128-0.465,2.221-0.965,3.334-1.38c1.118-0.401,2.221-0.796,3.308-1.186c2.154-0.827,4.332-1.394,6.406-2.029
		c8.358-2.38,15.898-3.389,22.109-3.723c1.555-0.077,3.024-0.154,4.414-0.138c0.693-0.003,1.365-0.006,2.014-0.009
		c0.65,0.022,1.279,0.043,1.884,0.064c1.209,0.035,2.331,0.114,3.362,0.113c1.031-0.02,1.953,0.397,2.752,0.825
		c1.604,0.865,2.765,1.79,3.506,2.511C465.3,270.519,465.614,271.02,465.614,271.02z"/>
</g>
                <g>
                    <path class="path2" fill="#010101" stroke="#000000" stroke-width="3" stroke-miterlimit="10" d="M371.595,314.298c0,0-0.066,0.046-0.195,0.136
		c-0.065,0.045-0.145,0.101-0.242,0.168c-0.091,0.037-0.004,0.06,0.047,0.08c0.056,0.02,0.118,0.033,0.183,0.037
		s0.135-0.001,0.202-0.018c0.061-0.009,0.033,0.059,0.055,0.082c0.015,0.087,0.057,0.073,0.049,0.215
		c0.001,0.125-0.002,0.18-0.017,0.335c-0.018,0.161-0.026,0.302-0.059,0.481c-0.113,0.732-0.262,1.851-0.444,3.25
		c-0.068,0.712-0.19,1.469-0.406,2.28c-0.208,0.814-0.521,1.675-0.741,2.626c-0.759,3.833-1.334,8.708-1.818,14.35
		c-0.474,5.647-0.839,12.076-1.071,19.113c-0.216,7.039-0.326,14.685-0.329,22.779c-0.02,8.094,0.012,16.638,0.172,25.472
		c0.039,2.207,0.078,4.432,0.118,6.673c0.02,1.117,0.04,2.237,0.06,3.361l0.004,0.207l0.002,0.102
		c0.011,0.289-0.013-0.279-0.007-0.181l0.029,0.425l0.059,0.852l0.118,1.707c0.16,2.271,0.302,4.605,0.515,6.808
		c0.206,2.238,0.345,4.474,0.621,6.746c0.969,9.071,2.257,18.225,4.243,27.17c1.933,8.956,4.706,17.642,8.203,25.716
		c3.522,8.059,8.104,15.372,13.714,21.161c5.57,5.827,12.224,10.003,19.213,12.317c6.989,2.34,14.2,2.882,20.843,2.514
		c6.663-0.383,12.789-1.673,18.115-3.188c2.667-0.759,5.138-1.587,7.401-2.423c2.263-0.837,4.308-1.695,6.235-2.314
		c3.873-1.195,7.067-1.965,9.348-2.384c2.273-0.426,3.637-0.498,3.637-0.498s-0.041,0.072-0.123,0.215
		c-0.081,0.146-0.207,0.355-0.384,0.619c-0.35,0.533-0.902,1.284-1.688,2.18c-1.574,1.783-4.105,4.13-7.754,6.42
		c-1.835,1.12-3.999,2.094-6.382,3.091c-2.382,1-4.996,2.008-7.844,2.956c-5.691,1.891-12.324,3.616-19.834,4.385
		c-7.48,0.755-15.939,0.534-24.538-1.97c-8.581-2.45-17.105-7.31-24.054-14.097c-6.955-6.792-12.446-15.17-16.634-24.066
		c-2.085-4.456-3.958-9.04-5.442-13.726c-0.409-1.164-0.766-2.339-1.11-3.517l-1.046-3.535c-0.597-2.373-1.3-4.737-1.807-7.125
		c-2.213-9.532-3.764-19.143-4.707-28.62c-0.485-4.731-0.876-9.568-1.084-14.068l-0.094-1.709l-0.047-0.852l-0.023-0.426
		l-0.014-0.394l-0.001-0.111l-0.002-0.219c-0.004-1.146-0.008-2.288-0.012-3.427c-0.011-2.271,0.021-4.522,0.051-6.754
		c0.129-8.928,0.328-17.553,0.658-25.736c0.343-8.183,0.777-15.922,1.294-23.073c0.508-7.152,1.086-13.718,1.783-19.556
		c0.688-5.842,1.514-10.946,2.434-15.231c0.199-1.078,0.328-2.128,0.572-3.103c0.241-0.977,0.602-1.882,1.019-2.705
		c0.803-1.664,1.732-3.083,2.774-4.249c0.254-0.296,0.563-0.573,0.817-0.818c0.264-0.247,0.598-0.507,0.87-0.706
		c0.251-0.197,0.645-0.406,0.921-0.558c0.164-0.084,0.256-0.14,0.457-0.225c0.211-0.089,0.415-0.164,0.609-0.225
		c0.193-0.061,0.375-0.109,0.543-0.146c0.164-0.036,0.352-0.077,0.371-0.052c0.115,0.02,0.212,0.037,0.289,0.051
		c0.155,0.027,0.234,0.041,0.234,0.041L371.595,314.298z"/>
                </g>
                <g>
                    <path class="path3" fill="#010101" stroke="#000000" stroke-width="3" stroke-miterlimit="10" d="M255.683,419.746c0,0,0.876-0.517,2.343-0.91
		c1.458-0.386,3.476-0.702,5.871-0.347c1.209,0.155,2.548,0.327,4.005,0.514c1.47,0.136,3.06,0.283,4.759,0.44
		c3.412,0.251,7.256,0.573,11.488,0.711c2.111,0.106,4.305,0.244,6.595,0.261c2.284,0.069,4.645,0.14,7.073,0.213
		c4.871-0.014,9.997,0.192,15.323,0.035c2.661-0.049,5.366-0.099,8.105-0.149c2.74-0.121,5.513-0.243,8.309-0.367
		c5.593-0.172,11.268-0.67,16.942-1.106c5.676-0.399,11.339-1.069,16.915-1.642c2.787-0.309,5.555-0.557,8.283-0.908
		c2.728-0.343,5.423-0.683,8.074-1.016c5.304-0.639,10.434-1.215,15.294-1.851c4.858-0.64,9.463-1.15,13.714-1.633
		c4.251-0.493,8.148-0.946,11.602-1.346c1.728-0.198,3.342-0.408,4.841-0.558c1.503-0.124,2.896-0.151,4.171-0.077
		c2.544,0.118,4.601,0.579,6.024,1.012c1.426,0.451,2.212,0.847,2.212,0.847l0.038,0.242c0,0-0.629,0.606-1.856,1.45
		c-1.23,0.825-3.064,1.862-5.472,2.713c-1.202,0.44-2.55,0.819-4.031,1.137c-1.486,0.292-3.099,0.559-4.82,0.872
		c-3.448,0.581-7.316,1.384-11.584,1.953c-4.259,0.628-8.872,1.321-13.765,1.954c-4.88,0.721-10.07,1.187-15.423,1.765
		c-2.68,0.263-5.404,0.53-8.162,0.8c-2.757,0.277-5.561,0.452-8.38,0.686c-5.643,0.426-11.362,0.949-17.109,1.247
		c-5.739,0.368-11.474,0.753-17.138,1.008c-2.83,0.141-5.638,0.281-8.411,0.419c-2.78,0.076-5.526,0.152-8.228,0.226
		c-1.351,0.04-2.69,0.08-4.017,0.12c-1.329,0.008-2.646,0.017-3.949,0.025c-2.606,0.004-5.156,0.008-7.639,0.012
		c-4.975-0.162-9.672-0.273-14.018-0.669c-2.172-0.16-4.248-0.34-6.228-0.599c-1.977-0.258-3.854-0.418-5.612-0.722
		c-1.757-0.299-3.402-0.578-4.923-0.837c-1.518-0.313-2.912-0.601-4.172-0.862c-2.52-0.591-4.344-1.752-5.486-2.799
		c-1.137-1.033-1.642-1.922-1.642-1.922L255.683,419.746z"/>
                </g>
</svg>