<?xml version="1.0" encoding="utf-8"?>
<!-- Generator: Adobe Illustrator 17.0.2, SVG Export Plug-In . SVG Version: 6.00 Build 0)  -->
<!DOCTYPE svg PUBLIC "-//W3C//DTD SVG 1.1//EN" "http://www.w3.org/Graphics/SVG/1.1/DTD/svg11.dtd">
<svg version="1.1" id="Layer_1" xmlns="http://www.w3.org/2000/svg" xmlns:xlink="http://www.w3.org/1999/xlink" x="0px" y="0px"
	 width="425.2px" height="141.73px" viewBox="0 0 425.2 141.73" enable-background="new 0 0 425.2 141.73" xml:space="preserve">
<g>
	<path fill="#020202" stroke="#010101" stroke-width="5" stroke-miterlimit="10" d="M419.555,73.664c0,0-0.604-0.104-1.56-0.345
		c-0.979-0.243-2.313-0.651-3.883-1.266c-0.8-0.298-1.589-0.696-2.231-1.375c-0.329-0.329-0.652-0.697-1.024-1.045
		c-0.369-0.349-0.789-0.681-1.205-1.044c-0.42-0.358-0.855-0.73-1.307-1.115c-0.467-0.367-0.95-0.747-1.45-1.14
		c-0.981-0.803-2.083-1.585-3.24-2.415c-4.643-3.296-10.618-6.892-17.96-9.901c-1.85-0.716-3.716-1.546-5.733-2.167
		c-0.996-0.336-2.007-0.676-3.032-1.021c-1.028-0.332-2.098-0.588-3.165-0.892c-1.072-0.289-2.144-0.626-3.247-0.898
		c-1.112-0.246-2.237-0.494-3.376-0.746c-2.259-0.566-4.634-0.878-7.036-1.276c-9.639-1.415-20.266-1.857-31.489-0.954
		c-11.218,0.897-23.034,2.906-35.095,6.015c-12.057,3.119-24.324,7.426-36.371,12.844c-2.977,1.435-5.966,2.877-8.964,4.322
		c-1.489,0.744-3.019,1.408-4.482,2.219c-1.474,0.789-2.949,1.58-4.425,2.371c-2.942,1.606-5.945,3.107-8.833,4.835
		c-2.895,1.715-5.794,3.432-8.692,5.149l-2.174,1.287l-1.224,0.717l-1.216,0.667c-1.569,0.84-3.13,1.64-4.702,2.407
		c-3.135,1.555-6.307,2.981-9.499,4.343c-6.388,2.706-12.875,5.08-19.405,7.145c-6.533,2.059-13.13,3.737-19.704,5.139
		c-1.65,0.323-3.294,0.645-4.934,0.966c-1.637,0.331-3.293,0.541-4.93,0.815c-3.271,0.578-6.561,0.884-9.809,1.265
		c-13.026,1.339-25.796,1.043-37.725-0.527c-11.936-1.587-22.998-4.575-32.796-8.3c-1.217-0.489-2.421-0.973-3.612-1.451
		c-1.182-0.497-2.387-0.903-3.499-1.491c-2.251-1.1-4.45-2.176-6.595-3.224c-1.08-0.504-2.08-1.132-3.086-1.713
		c-1.001-0.586-1.988-1.165-2.962-1.735c-1.944-1.141-3.852-2.209-5.574-3.45c-3.474-2.432-6.764-4.622-9.549-6.997
		c-2.828-2.314-5.436-4.401-7.578-6.54c-2.175-2.098-4.128-3.942-5.757-5.611c-1.55-1.75-2.869-3.237-3.938-4.444
		c-2.111-2.427-3.205-3.735-3.205-3.735s1.384,1.029,3.92,2.983c1.255,0.984,2.801,2.198,4.619,3.625
		c1.846,1.384,4.059,2.86,6.457,4.585c0.599,0.432,1.213,0.875,1.843,1.33c0.316,0.226,0.636,0.454,0.959,0.685
		c0.338,0.212,0.68,0.425,1.026,0.642c1.379,0.865,2.823,1.771,4.327,2.715c2.918,2.011,6.325,3.779,9.878,5.766
		c7.168,3.853,15.473,7.778,24.921,10.909c9.406,3.223,19.932,5.705,31.244,6.952c1.414,0.154,2.834,0.335,4.269,0.472
		c1.44,0.085,2.889,0.171,4.346,0.258c1.459,0.062,2.92,0.23,4.401,0.209c1.478,0.013,2.965,0.026,4.461,0.039l2.248,0.022
		l2.26-0.076c1.511-0.05,3.03-0.101,4.556-0.151c1.526-0.047,3.055-0.22,4.593-0.325c1.536-0.14,3.085-0.196,4.629-0.405
		c3.09-0.388,6.214-0.698,9.336-1.239c1.561-0.262,3.138-0.456,4.702-0.772c1.565-0.305,3.136-0.612,4.711-0.919
		c6.279-1.342,12.597-2.92,18.863-4.87c6.262-1.958,12.492-4.212,18.608-6.778c3.054-1.29,6.09-2.643,9.056-4.101
		c1.491-0.715,2.954-1.481,4.386-2.25l1.023-0.563l0.979-0.575l2.218-1.323c2.957-1.763,5.915-3.526,8.869-5.287
		c1.463-0.904,2.987-1.706,4.497-2.531l4.519-2.484c1.505-0.827,3.008-1.654,4.511-2.479c1.491-0.846,3.058-1.551,4.581-2.331
		c3.069-1.52,6.127-3.036,9.174-4.546c3.106-1.4,6.2-2.794,9.278-4.182l2.306-1.041l2.34-0.956c1.559-0.635,3.115-1.268,4.665-1.899
		c1.551-0.634,3.097-1.267,4.638-1.897c1.57-0.564,3.134-1.127,4.693-1.688c3.126-1.105,6.198-2.301,9.356-3.185
		c12.47-3.983,25.043-6.6,37.184-7.442c12.129-0.869,23.781-0.161,34.262,1.978c2.615,0.566,5.186,1.048,7.644,1.789
		c1.234,0.34,2.453,0.676,3.658,1.007c1.196,0.362,2.361,0.781,3.517,1.168c1.149,0.409,2.296,0.769,3.401,1.206
		c1.099,0.45,2.183,0.895,3.252,1.332c2.154,0.827,4.152,1.863,6.118,2.779c7.803,3.824,14.082,8.12,18.921,12.028
		c1.207,0.983,2.35,1.909,3.372,2.851c0.517,0.462,1.018,0.909,1.503,1.341c0.468,0.451,0.922,0.888,1.357,1.308
		c0.875,0.835,1.656,1.645,2.423,2.334c0.78,0.675,1.186,1.602,1.493,2.455c0.613,1.716,0.857,3.18,0.925,4.212
		C419.657,73.082,419.555,73.664,419.555,73.664z"/>
</g>
<g>
	<g>
		<path fill="#FEF6AD" d="M494-111.5c3.224,0,3.224-5,0-5S490.776-111.5,494-111.5L494-111.5z"/>
	</g>
</g>
</svg>
